# xmcd
#
# Track frame offsets: 
#        150
#        13500
#        32804
#        44315
#        67209
#        80473
#        97245
#        115243
#        127952
#        139742
#        153520
#        167769
#        181134
#        191790
#        214591
#        229514
#        244190
#        264207
#        277496
#        294357
#        307651
#        323451
#        337507
#        350770
#
# Disc length: 4858 seconds
#
# Revision: 0
# Processed by: cddbd v1.5.2PL0 Copyright (c) Steve Scherf et al.
# Submitted via: ExactAudioCopyFreeDBPlugin 1.0
#
DISCID=5512f818
DTITLE=Various Artist - Free Soul Windy-City Brunswick Treasure
DYEAR=2014
DGENRE=Soul
TTITLE0=Barbara Acklin - Am I The Same Girl
TTITLE1=The Chi-Lites - When Temptation Comes
TTITLE2=The Lost Generation - Love Land
TTITLE3=Maryann Farra and Satin Soul - You Got To Be The One
TTITLE4=The Eliminators - Loving Explosion
TTITLE5=The Directions - We Need Love
TTITLE6=Step By Step - I Always Wanted To Be In The Band
TTITLE7=Ginji James - Here Is A Heart
TTITLE8=Willie Henderson and Soul Exprosions - Sugar Sugar
TTITLE9=Jackie Wilson - Let's Love Again
TTITLE10=Strutt - Said You Didn't Love Him
TTITLE11=Dana Valery - Following You
TTITLE12=Tyrone Davis - Could I Forget You
TTITLE13=Maryann Farra and Satin Soul - Stoned Out Of My Mind
TTITLE14=Barbara Acklin - I'll Bake Me A Man
TTITLE15=The Chi-Lites - Too Good To Be Forgotten
TTITLE16=Herman - Love The One You're With
TTITLE17=The Chi-Lites - Are You My Woman? (Tell Me So)
TTITLE18=Strutt - Funky Sign
TTITLE19=Odyssey 5 - Peace Of Mind
TTITLE20=The Lost Generation - This Is The Lost Generation
TTITLE21=Ben Monroe - Broken Home
TTITLE22=Young-Holt UnlimitedYoung-Holt Unlimited - Soulful Strut
TTITLE23=Jackie Wilson - It Only Happens When I Look At You
EXTD=
EXTT0=
EXTT1=
EXTT2=
EXTT3=
EXTT4=
EXTT5=
EXTT6=
EXTT7=
EXTT8=
EXTT9=
EXTT10=
EXTT11=
EXTT12=
EXTT13=
EXTT14=
EXTT15=
EXTT16=
EXTT17=
EXTT18=
EXTT19=
EXTT20=
EXTT21=
EXTT22=
EXTT23=
PLAYORDER=
